<?xml version="1.0" encoding="UTF-8" standalone="no"?>
<svg
   xmlns:dc="http://purl.org/dc/elements/1.1/"
   xmlns:cc="http://creativecommons.org/ns#"
   xmlns:rdf="http://www.w3.org/1999/02/22-rdf-syntax-ns#"
   xmlns:svg="http://www.w3.org/2000/svg"
   xmlns="http://www.w3.org/2000/svg"
   version="1.0"
   id="svg6359"
   height="130"
   width="270">
  <defs
     id="defs6361" />
  <metadata
     id="metadata6364">
    <rdf:RDF>
      <cc:Work
         rdf:about="">
        <dc:format>image/svg+xml</dc:format>
        <dc:type
           rdf:resource="http://purl.org/dc/dcmitype/StillImage" />
        <dc:title></dc:title>
      </cc:Work>
    </rdf:RDF>
  </metadata>
  <g
     transform="translate(-66.56992,-27.071068)"
     id="g1066">
    <text
       id="text6866"
       y="45.038311"
       x="87.335426"
       style="font-style:normal;font-variant:normal;font-weight:normal;font-stretch:normal;line-height:0%;font-family:'DejaVu Sans';-inkscape-font-specification:'DejaVu Sans';text-align:end;writing-mode:lr-tb;text-anchor:end;fill:#000000;fill-opacity:1;stroke:none;stroke-width:1px;stroke-linecap:butt;stroke-linejoin:miter;stroke-opacity:1"
       xml:space="preserve"><tspan
         style="font-size:14px;line-height:1"
         y="45.038311"
         x="87.335426"
         id="tspan6868">A</tspan></text>
    <text
       id="text6870"
       y="80"
       x="120.00706"
       style="font-style:normal;font-variant:normal;font-weight:normal;font-stretch:normal;line-height:0%;font-family:'DejaVu Sans';-inkscape-font-specification:'DejaVu Sans';text-align:end;writing-mode:lr-tb;text-anchor:end;fill:#000000;fill-opacity:1;stroke:none;stroke-width:1px;stroke-linecap:butt;stroke-linejoin:miter;stroke-opacity:1"
       xml:space="preserve"><tspan
         style="font-size:14px;line-height:1"
         y="80"
         x="120.00706"
         id="tspan6872">B</tspan></text>
    <path
       id="path8984"
       d="M 90.041952,40.00706 167,40"
       style="display:inline;overflow:visible;visibility:visible;fill:none;fill-opacity:1;stroke:#000000;stroke-width:1.99999976;stroke-linejoin:miter;stroke-miterlimit:4;stroke-dasharray:none;stroke-opacity:1;marker:none;enable-background:accumulate" />
    <path
       id="path8990"
       d="m 121.20384,75.068966 h 9.95661 V 60 H 167"
       style="display:inline;overflow:visible;visibility:visible;fill:none;fill-opacity:1;stroke:#000000;stroke-width:1.99999976;stroke-linejoin:miter;stroke-miterlimit:4;stroke-dasharray:none;stroke-opacity:1;marker:none;enable-background:accumulate" />
    <path
       id="path8319"
       d="M 100.01512,40.00706 V 109.962 H 170.89"
       style="display:inline;overflow:visible;visibility:visible;opacity:1;fill:none;fill-opacity:1;stroke:#000000;stroke-width:2;stroke-linecap:butt;stroke-linejoin:miter;stroke-miterlimit:4;stroke-dasharray:none;stroke-dashoffset:0;stroke-opacity:1;marker:none;enable-background:accumulate" />
    <path
       d="m 102.43706,39.88206 a 2.5,2.5 0 1 1 -5,0 2.5,2.5 0 1 1 5,0 z"
       id="path8343"
       style="display:inline;overflow:visible;visibility:visible;fill:#000000;fill-opacity:1;stroke:none;stroke-width:2.5;stroke-linejoin:miter;stroke-miterlimit:4;stroke-dasharray:none;stroke-opacity:1;marker:none;enable-background:accumulate" />
    <path
       d="m 133.59659,75.068966 a 2.5,2.5 0 1 1 -5,0 2.5,2.5 0 1 1 5,0 z"
       id="path8345"
       style="display:inline;overflow:visible;visibility:visible;fill:#000000;fill-opacity:1;stroke:none;stroke-width:2.5;stroke-linejoin:miter;stroke-miterlimit:4;stroke-dasharray:none;stroke-opacity:1;marker:none;enable-background:accumulate" />
    <circle
       style="display:inline;overflow:visible;visibility:visible;fill:none;fill-opacity:1;stroke:#000000;stroke-width:2;stroke-linejoin:miter;stroke-opacity:1;marker:none;enable-background:accumulate"
       id="path4008-3"
       cx="210.41574"
       cy="49.959824"
       r="4" />
    <path
       style="fill:none;stroke:#000000;stroke-width:1.99999988;stroke-linecap:butt;stroke-linejoin:miter;stroke-opacity:1"
       d="m 286.88258,74.928572 h 25.45828"
       id="path6851" />
    <text
       xml:space="preserve"
       style="font-style:normal;font-variant:normal;font-weight:normal;font-stretch:normal;line-height:0%;font-family:'DejaVu Sans';-inkscape-font-specification:'DejaVu Sans';text-align:end;writing-mode:lr-tb;text-anchor:end;fill:#000000;fill-opacity:1;stroke:none;stroke-width:1px;stroke-linecap:butt;stroke-linejoin:miter;stroke-opacity:1"
       x="325.77121"
       y="79.928574"
       id="text6878"><tspan
         id="tspan6880"
         x="325.77121"
         y="79.928574"
         style="font-size:14px;line-height:1">Q</tspan></text>
    <path
       style="display:inline;overflow:visible;visibility:visible;fill:none;fill-opacity:1;stroke:#000000;stroke-width:2;stroke-linejoin:miter;stroke-miterlimit:4;stroke-dasharray:none;stroke-opacity:1;marker:none;enable-background:accumulate"
       d="m 214.54074,49.897321 12.8125,0.03125 v 15.03831 l 22,-0.03831"
       id="path8978-6" />
    <path
       style="display:inline;overflow:visible;visibility:visible;fill:none;fill-opacity:1;stroke:#000000;stroke-width:1.99999988;stroke-linejoin:miter;stroke-miterlimit:4;stroke-dasharray:none;stroke-opacity:1;marker:none;enable-background:accumulate"
       d="m 208.60324,99.928568 18.75,4e-6 v -15 h 22"
       id="path8980-6" />
    <path
       id="path2884"
       d="m 166.35324,29.928572 v 1.428571 37.142858 1.428571 h 1.42857 19.04762 c 11.26791,0 20,-9.000045 20,-20 0,-10.999955 -8.73209,-20 -20,-20 0,0 0,0 -19.04762,0 z m 2.85714,2.857143 c 7.97712,0 13.06123,0 15.2381,0 1.19047,0 1.78571,0 2.08333,0 0.14881,0 0.23066,0 0.26786,0 0.0186,0 0.0251,0 0.0298,0 9.76066,0 16.66667,7.639955 16.66667,17.142857 0,9.502902 -7.3822,17.142857 -17.14286,17.142857 h -17.14286 z"
       style="font-style:normal;font-variant:normal;font-weight:normal;font-stretch:normal;font-size:medium;line-height:normal;font-family:'Bitstream Vera Sans';-inkscape-font-specification:'Bitstream Vera Sans';text-indent:0;text-align:start;text-decoration:none;text-decoration-line:none;letter-spacing:normal;word-spacing:normal;text-transform:none;writing-mode:lr-tb;direction:ltr;text-anchor:start;display:inline;overflow:visible;visibility:visible;fill:#000000;fill-opacity:1;stroke:none;stroke-width:3;marker:none;enable-background:accumulate" />
    <path
       id="path9105"
       d="m 248.35324,54.928572 v 1.428571 37.142858 1.428571 h 1.42857 19.04762 c 11.2679,0 20,-9.000045 20,-20 0,-10.999955 -8.7321,-20 -20,-20 0,0 0,0 -19.04762,0 z m 2.85714,2.857143 c 7.97712,0 13.06122,0 15.23809,0 1.19048,0 1.78572,0 2.08334,0 0.14881,0 0.23065,0 0.26785,0 0.0186,0 0.0251,0 0.0298,0 9.76066,0 16.66666,7.639955 16.66666,17.142857 0,9.502902 -7.38219,17.142857 -17.14285,17.142857 h -17.14286 z"
       style="font-style:normal;font-variant:normal;font-weight:normal;font-stretch:normal;font-size:medium;line-height:normal;font-family:'Bitstream Vera Sans';-inkscape-font-specification:'Bitstream Vera Sans';text-indent:0;text-align:start;text-decoration:none;text-decoration-line:none;letter-spacing:normal;word-spacing:normal;text-transform:none;writing-mode:lr-tb;direction:ltr;text-anchor:start;display:inline;overflow:visible;visibility:visible;fill:#000000;fill-opacity:1;stroke:none;stroke-width:3;marker:none;enable-background:accumulate" />
    <path
       style="display:inline;overflow:visible;visibility:visible;fill:none;fill-opacity:1;stroke:#000000;stroke-width:1.99999976;stroke-linejoin:miter;stroke-miterlimit:4;stroke-dasharray:none;stroke-opacity:1;marker:none;enable-background:accumulate"
       d="M 131.16045,75.068966 V 90.137932 L 170.8903,90.018195"
       id="path3772" />
    <g
       id="g99"
       transform="translate(144.38449,31.928568)">
      <g
         transform="translate(26.5,-39.5)"
         id="g97">
        <path
           id="path95"
           d="m -7.4062497,87.500004 2,2.4375 c 0,0 5.65625,7.000049 5.65625,17.562496 0,10.56245 -5.65625,17.5625 -5.65625,17.5625 l -2,2.4375 h 3.15625 H 9.75 c 2.408076,0 7.689699,0.0245 13.625,-2.40625 5.935301,-2.43076 12.536536,-7.34326 17.6875,-16.875 L 39.75,107.5 41.0625,106.78125 C 30.759387,87.715594 14.506574,87.500004 9.75,87.500004 H -4.2499997 Z m 5.875,3 H 9.75 c 4.684173,0 18.28685,-0.130207 27.96875,16.999996 C 32.951964,115.92908 27.197469,120.18391 22,122.3125 16.639339,124.50793 12.158075,124.5 9.75,124.5 H -1.4999997 C 0.3735887,121.39157 3.25,115.45065 3.25,107.5 3.25,99.52665 0.3414689,93.599819 -1.5312497,90.500004 Z"
           style="fill:#000000;fill-opacity:1;fill-rule:evenodd;stroke:none;stroke-width:3;stroke-linecap:butt;stroke-linejoin:miter;stroke-opacity:1" />
      </g>
    </g>
  </g>
  <text
     id="text228"
     y="119.74695"
     x="47.595703"
     style="font-style:normal;font-weight:normal;font-size:24px;line-height:1.25;font-family:sans-serif;letter-spacing:0px;word-spacing:0px;fill:#000000;fill-opacity:1;stroke:none"
     xml:space="preserve"><tspan
       style="font-style:normal;font-variant:normal;font-weight:normal;font-stretch:normal;font-family:'Cambria Math';-inkscape-font-specification:'Cambria Math'"
       y="119.74695"
       x="47.595703"
       id="tspan226">Q=(A+B)⋅(A̅+B̅)</tspan></text>
</svg>
